<?xml version="1.0" encoding="UTF-8"?>
<svg version="1.1" xmlns="http://www.w3.org/2000/svg" width="96" height="96">
<path d="M0 0 C2.93423195 1.79646854 4.47205355 2.9441071 6 6 C6.1377685 9.67015275 6.04271961 13.32611348 6 17 C9.63 18.98 13.26 20.96 17 23 C18.134375 22.19175781 19.26875 21.38351563 20.4375 20.55078125 C21.95824987 19.47123659 23.47908793 18.39181614 25 17.3125 C25.74378906 16.78205078 26.48757812 16.25160156 27.25390625 15.70507812 C29.49115018 14.11955308 31.74259304 12.55665321 34 11 C34.69569092 10.50669189 35.39138184 10.01338379 36.1081543 9.50512695 C40.4454886 6.57094039 43.42346419 5.36432668 48.8125 5.5625 C49.91207031 5.58441406 51.01164062 5.60632813 52.14453125 5.62890625 C55 6 55 6 58 8 C57.62414351 10.54388999 57.26113191 11.75025922 55.37695312 13.55224609 C54.68537109 14.03773926 53.99378906 14.52323242 53.28125 15.0234375 C52.12882812 15.84328125 52.12882812 15.84328125 50.953125 16.6796875 C50.14359375 17.23914063 49.3340625 17.79859375 48.5 18.375 C47.72140625 18.92671875 46.9428125 19.4784375 46.140625 20.046875 C41.38395251 23.40174666 36.55481382 26.61463726 31.63476562 29.72509766 C30.82555664 30.35617432 30.82555664 30.35617432 30 31 C30 31.66 30 32.32 30 33 C31.6604653 34.40219376 31.6604653 34.40219376 33.83984375 35.79296875 C34.65646484 36.34146484 35.47308594 36.88996094 36.31445312 37.45507812 C37.18005859 38.02677734 38.04566406 38.59847656 38.9375 39.1875 C45.50255969 43.55232246 51.84160103 48.0742118 58 53 C57.625 54.9375 57.625 54.9375 57 57 C52.4607532 59.2696234 46.89935493 58.64522755 42 58 C37.88680866 56.22904262 34.55240427 53.70229683 31 51 C29.73768996 50.09820625 28.47186013 49.20132538 27.203125 48.30859375 C23.78241992 45.89885245 20.38673238 43.45723503 17 41 C11.555 43.97 11.555 43.97 6 47 C6.12375 49.5678125 6.12375 49.5678125 6.25 52.1875 C6.26016615 56.1370508 6.20009612 57.66650647 4.125 61.125 C0.35429323 64.45209421 -2.63337205 64.32824514 -7.515625 64.29296875 C-10.97198834 63.88537873 -12.68663869 62.53723498 -15 60 C-16.85899428 56.28201145 -16.42884531 52.05802875 -16 48 C-14.625 45.0625 -14.625 45.0625 -12 43 C-9.56193135 42.1341841 -7.11197273 41.46385972 -4.609375 40.80859375 C0.0344035 39.36957855 4.76924648 37.18143172 7.21875 32.83984375 C7.4765625 32.23269531 7.734375 31.62554687 8 31 C3.00164927 26.59669102 -1.48230256 23.46584078 -8.125 22.125 C-11.00665097 21.42942908 -12.09420613 20.92463509 -14.5 19 C-16.67121698 14.65756603 -16.79790396 10.76395602 -16 6 C-11.95766104 -0.60248696 -7.2842127 -0.85898735 0 0 Z M-9 8 C-9.16666667 11 -9.16666667 11 -9 14 C-7.88163776 15.34404775 -7.88163776 15.34404775 -5 15.125 C-2.11836224 15.34404775 -2.11836224 15.34404775 -1 14 C-0.83333333 11 -0.83333333 11 -1 8 C-2.11836224 6.65595225 -2.11836224 6.65595225 -5 6.875 C-7.88163776 6.65595225 -7.88163776 6.65595225 -9 8 Z M-9 50 C-9.16666667 53 -9.16666667 53 -9 56 C-7.88163776 57.34404775 -7.88163776 57.34404775 -5 57.125 C-2.11836224 57.34404775 -2.11836224 57.34404775 -1 56 C-0.83333333 53 -0.83333333 53 -1 50 C-2.11836224 48.65595225 -2.11836224 48.65595225 -5 48.875 C-7.88163776 48.65595225 -7.88163776 48.65595225 -9 50 Z " fill="#2095F2" transform="translate(16,16)"/>
<path d="M0 0 C2.478612 1.17862282 4.54224203 2.44911197 6.75219727 4.06811523 C7.89205078 4.89762695 7.89205078 4.89762695 9.05493164 5.74389648 C9.83545898 6.32010742 10.61598633 6.89631836 11.42016602 7.48999023 C12.1890918 8.05073242 12.95801758 8.61147461 13.75024414 9.18920898 C18.73385759 12.8312421 23.67785636 16.52555367 28.60766602 20.23999023 C28.23266602 22.17749023 28.23266602 22.17749023 27.60766602 24.23999023 C23.06841921 26.50961364 17.50702094 25.88521778 12.60766602 25.23999023 C8.49447468 23.46903285 5.16007029 20.94228707 1.60766602 18.23999023 C0.34535598 17.33819648 -0.92047385 16.44131561 -2.18920898 15.54858398 C-5.60991406 13.13884269 -9.0056016 10.69722526 -12.39233398 8.23999023 C-11.20786021 4.68656891 -10.16392675 4.02359515 -7.14233398 1.92749023 C-6.37405273 1.37448242 -5.60577148 0.82147461 -4.81420898 0.25170898 C-2.39233398 -0.76000977 -2.39233398 -0.76000977 0 0 Z " fill="#1464C0" transform="translate(45.392333984375,48.760009765625)"/>
<path d="M0 0 C2.93423195 1.79646854 4.47205355 2.9441071 6 6 C5.81411568 7.75017235 5.62635045 9.50014522 5.4375 11.25 C5.25025811 14.22182953 5.25025811 14.22182953 6 17 C8.46593306 19.16690076 10.83147151 20.42322591 13.8125 21.78125 C14.534375 22.1834375 15.25625 22.585625 16 23 C16 26 16 26 13.6875 28.6875 C11 31 11 31 8 31 C6.52011203 29.78320323 5.04325005 28.56203444 3.59765625 27.3046875 C0.03549785 24.39573663 -3.68872907 23.0204695 -8.125 22.125 C-11.00665097 21.42942908 -12.09420613 20.92463509 -14.5 19 C-16.67121698 14.65756603 -16.79790396 10.76395602 -16 6 C-11.95766104 -0.60248696 -7.2842127 -0.85898735 0 0 Z M-9 8 C-9.16666667 11 -9.16666667 11 -9 14 C-7.88163776 15.34404775 -7.88163776 15.34404775 -5 15.125 C-2.11836224 15.34404775 -2.11836224 15.34404775 -1 14 C-0.83333333 11 -0.83333333 11 -1 8 C-2.11836224 6.65595225 -2.11836224 6.65595225 -5 6.875 C-7.88163776 6.65595225 -7.88163776 6.65595225 -9 8 Z " fill="#1464C0" transform="translate(16,16)"/>
<path d="M0 0 C2.64 0 5.28 0 8 0 C8 2.64 8 5.28 8 8 C5.36 8 2.72 8 0 8 C0 5.36 0 2.72 0 0 Z " fill="#B0BEC5" transform="translate(88,44)"/>
<path d="M0 0 C2.64 0 5.28 0 8 0 C8 2.64 8 5.28 8 8 C5.36 8 2.72 8 0 8 C0 5.36 0 2.72 0 0 Z " fill="#B0BEC5" transform="translate(72,44)"/>
<path d="M0 0 C2.64 0 5.28 0 8 0 C8 2.64 8 5.28 8 8 C5.36 8 2.72 8 0 8 C0 5.36 0 2.72 0 0 Z " fill="#B0BEC5" transform="translate(56,44)"/>
</svg>
